<?xml version="1.0" encoding="utf-8"?>
<!-- Generator: Adobe Illustrator 23.0.0, SVG Export Plug-In . SVG Version: 6.00 Build 0)  -->
<svg version="1.1" id="Layer_1" xmlns="http://www.w3.org/2000/svg" xmlns:xlink="http://www.w3.org/1999/xlink" x="0px" y="0px"
	 viewBox="0 0 311.5 84.6" style="enable-background:new 0 0 311.5 84.6;" xml:space="preserve">
<style type="text/css">
	.st0{fill:#992269;}
</style>
<path class="st0" d="M72.5,16.5v-2.4L54.3,26.7C49,8.5,43.8-0.3,38.2,0c-7.5,0.4-14.5,17.9-20.7,52.2L0,64.4v2.3l17-11.7
	c-2.8,15.8-4.3,29.1-4.3,29.3l2,0.2c0-0.1,1.7-14.6,4.6-31.2L53.1,30c2,7.4,4.1,16.3,6.1,26.5l2.1,0c-2.1-10.6-4.3-20.2-6.4-27.8
	L72.5,16.5z"/>
<path class="st0" d="M94.3,56.7L88.6,48c-4-5.9-5.1-6.5-9.1-6.5H75v15.1h-2.5V25.2h8.4c8,0,10.8,3.9,10.8,8.1c0,3.6-2.1,6.2-6.2,7.7
	c1.5,0.8,2.8,2.6,4.4,4.8l7.4,10.9H94.3z M89,33.4c0-3.5-2.6-6.1-8.6-6.1H75v12.3h5.4C86.2,39.6,89,37.2,89,33.4"/>
<path class="st0" d="M127.3,54.1c-3.8,2-7.8,2.9-11.6,2.9c-10,0-17.4-6.9-17.4-16.1c0-9.6,8.1-16.2,17.2-16.2
	c3.7,0,7.5,0.9,11.5,2.6v2.7c-4.1-2.1-7.8-3-11.6-3c-8.2,0-14.3,6-14.3,13.9c0,8.1,6,13.8,14.6,13.8c3.7,0,7.2-1,11.6-3.2V54.1z"/>
<polygon class="st0" points="156.3,56.7 156.3,41.8 134.5,41.8 134.5,56.7 131.9,56.7 131.9,25.2 134.5,25.2 134.5,39.7 156.3,39.7 
	156.3,25.2 158.8,25.2 158.8,56.7 "/>
<rect x="166.1" y="25.2" class="st0" width="2.5" height="31.4"/>
<polygon class="st0" points="203.3,56.7 203.3,28.8 203.2,28.8 190.8,43.5 178.4,28.8 178.3,28.8 178.3,56.7 175.8,56.7 175.8,25.2 
	178.3,25.2 190.8,39.8 203.3,25.2 205.8,25.2 205.8,56.7 "/>
<polygon class="st0" points="213.1,56.7 213.1,25.2 231,25.2 231,27.3 215.7,27.3 215.7,39.8 230.6,39.8 230.6,41.9 215.7,41.9 
	215.7,54.6 231.3,54.6 231.3,56.7 "/>
<path class="st0" d="M265.6,40.9c0,7.3-4.5,15.7-17.4,15.7h-11.9V25.2h11.5C261.7,25.2,265.6,34,265.6,40.9 M262.9,40.9
	c0-8.1-6.1-13.7-15-13.7h-9.1v27.4h9.2C255.9,54.6,262.9,49.8,262.9,40.9"/>
<polygon class="st0" points="271.6,56.7 271.6,25.2 289.4,25.2 289.4,27.3 274.2,27.3 274.2,39.8 289.1,39.8 289.1,41.9 274.2,41.9 
	274.2,54.6 289.8,54.6 289.8,56.7 "/>
<path class="st0" d="M311.5,48.5c0,4.8-4.2,8.6-9.5,8.6c-2.7,0-5.5-0.9-8.4-2.8v-2.9c3.7,2.6,5.7,3.4,8.2,3.4c3.9,0,6.9-2.7,6.9-6.3
	c0-8.9-15.6-5-15.6-15.4c0-4.7,4.2-8.3,9.4-8.3c2.5,0,5,0.6,7.6,2v2.7c-3.3-1.8-5.1-2.4-7.3-2.4c-3.9,0-6.9,2.6-6.9,6
	C296,41.4,311.5,37.4,311.5,48.5"/>
</svg>
